<svg xmlns="http://www.w3.org/2000/svg" xmlns:xlink="http://www.w3.org/1999/xlink" xmlns:fi="http://pattern.flaticon.com/" x="0" y="0" width="1920" height="1080" viewBox="0 0 350 196.875"><rect x="0px" y="0px" width="100%" height="100%" opacity="1" fill="#ffffff"/><defs><g transform="matrix(0.28375992578299764 -0.04994174875305807 0.04994174875305807 0.28375992578299764 175.86516749182312 73.90673327490188)" id="L1_6"><path d="M325.762,70.513l-17.706-4.854c-2.279-0.76-4.524-0.521-6.707,0.715c-2.19,1.237-3.669,3.094-4.429,5.568L190.426,440.53    c-0.76,2.475-0.522,4.809,0.715,6.995c1.237,2.19,3.09,3.665,5.568,4.425l17.701,4.856c2.284,0.766,4.521,0.526,6.71-0.712    c2.19-1.243,3.666-3.094,4.425-5.564L332.042,81.936c0.759-2.474,0.523-4.808-0.716-6.999    C330.088,72.747,328.237,71.272,325.762,70.513z"/><path d="M166.167,142.465c0-2.474-0.953-4.665-2.856-6.567l-14.277-14.276c-1.903-1.903-4.093-2.857-6.567-2.857    s-4.665,0.955-6.567,2.857L2.856,254.666C0.95,256.569,0,258.759,0,261.233c0,2.474,0.953,4.664,2.856,6.566l133.043,133.044    c1.902,1.906,4.089,2.854,6.567,2.854s4.665-0.951,6.567-2.854l14.277-14.268c1.903-1.902,2.856-4.093,2.856-6.57    c0-2.471-0.953-4.661-2.856-6.563L51.107,261.233l112.204-112.201C165.217,147.13,166.167,144.939,166.167,142.465z"/><path d="M519.614,254.663L386.567,121.619c-1.902-1.902-4.093-2.857-6.563-2.857c-2.478,0-4.661,0.955-6.57,2.857l-14.271,14.275    c-1.902,1.903-2.851,4.09-2.851,6.567s0.948,4.665,2.851,6.567l112.206,112.204L359.163,373.442    c-1.902,1.902-2.851,4.093-2.851,6.563c0,2.478,0.948,4.668,2.851,6.57l14.271,14.268c1.909,1.906,4.093,2.854,6.57,2.854    c2.471,0,4.661-0.951,6.563-2.854L519.614,267.8c1.903-1.902,2.854-4.096,2.854-6.57    C522.468,258.755,521.517,256.565,519.614,254.663z"/></g><g transform="matrix(0.3138036170226064 0.22723708774986492 -0.22723708774986492 0.3138036170226064 226.84480659490842 121.03004617092138)" id="L1_7"><path d="M96,48c0-13-4.308-17.965-5.172-18.828a4,4,0,0,0-6.406,1.039c-.028.058-3,5.712-8.313,5.788a16.362,16.362,0,0,1-2.812-2.06,33.766,33.766,0,0,0-5.372-3.845C67.173,19.016,59.932,16,56,16a4.005,4.005,0,0,0-3.124,1.5c-.094.118-9.212,11.491-15.057,16.68C34.8,35.2,31.811,36.249,29.11,37.249,3.526,46.725,0,51.861,0,56c0,3.409,2.967,4.8,6.814,5.538l-.736,3.678,7.844,1.568.858-4.29c2.516.217,5.468.409,8.805.58l-.554,4.43,7.938.992.635-5.085c.862.03,1.726.06,2.625.087,1.9.058,3.826.108,5.771.153V68h8V63.805c7.026.11,13.955.158,20,.179V68h8V64h4v4h8V62.427C93.16,60.059,96,55.087,96,48ZM57.437,24.571a5.718,5.718,0,0,1,2.119,3.454,44.144,44.144,0,0,0-6.176,1.353C54.993,27.512,56.413,25.814,57.437,24.571ZM45.047,55.733a73.837,73.837,0,0,0-7.175-13.125c2.49-.864,4.9-1.665,7.156-2.391a88.687,88.687,0,0,1,7.931,15.635C50.163,55.817,47.531,55.778,45.047,55.733ZM11.063,54.126c2.943-1.855,8.533-4.731,19.01-8.693a69.161,69.161,0,0,1,6.094,10.1C23.074,55.186,15.392,54.672,11.063,54.126ZM80,56c-6.751,0-12.9-.023-18.5-.065A94.319,94.319,0,0,0,52.937,37.8a65.069,65.069,0,0,1,7.15-1.8c3.2.036,5.695,2.1,8.106,4.1C70.508,42.018,72.9,44,76,44a16.285,16.285,0,0,0,11.086-4.473A35.1,35.1,0,0,1,88,48C88,53.757,85.757,56,80,56Z"/><circle cx="62" cy="42" r="4"/></g><g transform="matrix(0.04162446461509462 -0.05649034107345375 0.05649034107345375 0.04162446461509462 265.23307582930806 134.57346462037046)" id="L1_8"><path d="M123.2,134H15.7C7,134,0,141,0,149.7v310.6C0,469,7,476,15.7,476h107.5c8.7,0,15.7-7,15.7-15.7V149.7    C139,141,131.9,134,123.2,134z M107.5,444.6H31.4V165.4h76.1V444.6z"/><path d="M468.1,216.4H360.6c-8.7,0-15.7,7-15.7,15.7v228.2c0,8.7,7,15.7,15.7,15.7h107.5c8.7,0,15.7-7,15.7-15.7V232.1    C483.8,223.4,476.8,216.4,468.1,216.4z M376.3,247.8h24.4l-24.4,24.4V247.8z M376.3,297.2l49.3-49.3h24.9l-74.2,74.2L376.3,297.2    L376.3,297.2z M452.4,444.6h-24.5l24.5-24.5V444.6z M452.4,395.2L403,444.6h-24.9l74.2-74.2v24.8H452.4z M452.4,345.5l-76.1,76.1    v-24.9l76.1-76.1V345.5z M452.4,295.7l-76.1,76.1v-24.9l76.1-76.1V295.7z"/><path d="M295.7,7.8H188.1c-8.7,0-15.7,7-15.7,15.7v436.8c0,8.7,7,15.7,15.7,15.7h107.5c8.7,0,15.7-7,15.7-15.7V23.5    C311.4,14.8,304.4,7.8,295.7,7.8z"/></g><g transform="matrix(0.11554916610253262 -0.16262476059346434 0.16262476059346434 0.11554916610253262 89.96067173854384 101.04960874865228)" id="L1_10"><path d="M283.562,155.007c-10.015,0-18.162,8.148-18.162,18.163v46.98c0,10.015,8.147,18.162,18.162,18.162    c10.016,0,18.163-8.147,18.163-18.162v-46.98C301.725,163.155,293.577,155.007,283.562,155.007z"/><path d="M507.493,166.744l-86.5-84.691c-20.142-19.722-46.76-30.583-74.95-30.583h-7.407c-0.773-0.634-1.621-1.2-2.54-1.684    l-22.649-11.923c-7.332-3.861-16.401-1.044-20.261,6.286c-1.231,2.339-1.776,4.854-1.719,7.322h-70.935    c0.057-2.467-0.488-4.983-1.719-7.322c-3.859-7.331-12.932-10.146-20.261-6.286l-22.649,11.923    c-0.919,0.484-1.767,1.05-2.54,1.684h-7.407c-28.19,0-54.809,10.861-74.95,30.583l-86.5,84.691    c-5.77,5.649-6.032,14.851-0.595,20.819l56.561,62.091c5.264,5.779,14.083,6.546,20.267,1.764l35.118-27.164l3.559,236.84    c0.123,8.195,6.802,14.774,14.998,14.774h243.174c8.196,0,14.875-6.579,14.998-14.774l3.559-236.84l35.118,27.164    c6.183,4.782,15.002,4.016,20.267-1.764l56.561-62.091C513.526,181.595,513.263,172.393,507.493,166.744z M210.274,253.312    c0,8.284-6.716,15-15,15s-15-6.716-15-15V140.007c0-8.284,6.716-15,15-15s15,6.716,15,15V253.312z M331.725,220.15    c0,26.557-21.605,48.162-48.163,48.162c-26.557,0-48.162-21.605-48.162-48.162v-46.98c0-26.557,21.605-48.163,48.162-48.163    c26.558,0,48.163,21.605,48.163,48.163V220.15z"/></g><g transform="matrix(0.11905541270971298 0 0 0.11905541270971298 81.99999875015067 134.99999863388564)" id="L1_12"><g><path d="m118.118 119.124 272.245 272.246c75.179-75.179 75.178-197.067 0-272.245s-197.067-75.179-272.245-.001z" fill="#a0e5a5"/><path d="m118.118 391.37c75.178 75.178 197.067 75.179 272.245 0l-272.245-272.246c-75.179 75.179-75.179 197.067 0 272.246z" fill="#ffee80"/><path d="m332.726 231.992h161.241c0-121.571-98.553-220.124-220.124-220.124v163.295" fill="#ff7d97"/><path d="m174.156 271.975h-164.156c0 121.571 98.553 220.124 220.124 220.124v-156.768" fill="#99ebfa"/><circle cx="254" cy="255" r="80" fill="#e7e9ef"/></g><g><path d="m436.565 69.27c-43.464-43.465-101.253-67.402-162.722-67.402-5.522 0-10 4.477-10 10v41.117c-57.005-2.709-112.273 18.545-152.797 59.069-39.746 39.746-61.035 93.968-59.184 149.921h-41.862c-5.522 0-10 4.477-10 10 0 47.199 14.187 92.561 41.026 131.181 7.348 10.569 23.753-.866 16.424-11.414-22.6-32.518-35.371-70.277-37.217-109.767h147.97c8.001 25.701 27.233 46.487 51.92 56.629v143.261c-38.849-1.82-76.088-14.233-108.256-36.175-10.622-7.247-21.876 9.287-11.27 16.522 38.255 26.094 83.044 39.887 129.525 39.887 5.522 0 10-4.477 10-10v-34.852c4.819.339 9.627.528 14.415.528 53.462 0 104.527-20.97 142.888-59.328.002-.002.005-.004.007-.006 41.518-41.518 62.702-98.133 58.864-156.449h37.669c5.522 0 10-4.477 10-10 .002-61.469-23.936-119.258-67.4-162.722zm-172.722 3.736v92.669c-23.49-2.5-47.365 4.462-65.806 19.226l-65.585-65.584c35.955-32.246 83.018-48.854 131.391-46.311zm-99.687 182.241c0 2.263.086 4.506.251 6.728h-92.533c-1.736-47.332 14.903-93.334 46.437-128.515l65.583 65.583c-12.343 15.419-19.738 34.963-19.738 56.204zm20 0c0-38.645 31.439-70.084 70.084-70.084s70.084 31.44 70.084 70.084-31.439 70.084-70.084 70.084-70.084-31.439-70.084-70.084zm55.968 181.95v-92.981c24.845 3.927 50.686-2.903 70.32-18.622l65.582 65.583c-37.202 33.401-85.889 49.91-135.902 46.02zm150.048-60.16-65.585-65.586c15.53-19.399 22.401-44.879 18.76-69.459h92.91c3.62 49.695-12.929 98.104-46.085 135.045zm-52.211-155.045c-9.635-24.172-29.449-43.219-54.118-51.827v-148.062c107.924 5.081 194.808 91.965 199.889 199.889z"/><path d="m70.873 419.904c-5.03 2.088-7.496 8.024-5.41 13.06 2.085 5.036 8.028 7.489 13.061 5.41 5.024-2.075 7.503-8.036 5.41-13.06-2.095-5.026-8.018-7.503-13.061-5.41z"/></g></g><g transform="matrix(0.11779263239469 0.0895223966698924 -0.0895223966698924 0.11779263239469 53.08052646040838 80.4740735361542)" id="L1_13"><path d="M374.288,93.2c25.6,0,46.4-20.9,46.4-46.6S399.888,0,374.288,0s-46.4,21-46.4,46.6S348.688,93.2,374.288,93.2z     M374.288,24.1c12.3,0,22.4,10.1,22.4,22.6s-10,22.6-22.4,22.6s-22.4-10.2-22.4-22.7S361.888,24.1,374.288,24.1z"/><path d="M100.688,393.7c-25.6,0-46.4,20.9-46.4,46.6s20.8,46.6,46.4,46.6s46.4-20.9,46.4-46.6S126.188,393.7,100.688,393.7z     M100.688,462.9c-12.3,0-22.4-10.1-22.4-22.6c0-12.4,10-22.6,22.4-22.6s22.4,10.1,22.4,22.6    C122.988,452.7,112.988,462.9,100.688,462.9z"/><path d="M215.388,206.5c2.3,2.3,5.4,3.5,8.5,3.5s6.1-1.2,8.5-3.5c4.7-4.7,4.7-12.3,0-17l-25-25l25-25c4.7-4.7,4.7-12.3,0-17    c-4.7-4.7-12.3-4.7-17,0l-25,25l-25-25c-4.7-4.7-12.3-4.7-17,0c-4.7,4.7-4.7,12.3,0,17l25,25l-25,25c-4.7,4.7-4.7,12.3,0,17    c2.3,2.3,5.4,3.5,8.5,3.5s6.1-1.2,8.5-3.5l25-25L215.388,206.5z"/><path d="M416.288,315c-4.7-4.7-12.3-4.7-17,0l-25,25l-25-25c-4.7-4.7-12.3-4.7-17,0s-4.7,12.3,0,17l25,25l-25,25    c-4.7,4.7-4.7,12.3,0,17c2.3,2.3,5.4,3.5,8.5,3.5s6.1-1.2,8.5-3.5l25-25l25,25c2.3,2.3,5.4,3.5,8.5,3.5s6.1-1.2,8.5-3.5    c4.7-4.7,4.7-12.3,0-17l-25-25l25-25C420.988,327.2,420.988,319.7,416.288,315z"/><path d="M274.088,376.9c-4.7-4.7-12.3-4.7-17,0l-25,25l-25-25c-4.7-4.7-12.3-4.7-17,0c-4.7,4.7-4.7,12.3,0,17l25,25l-25,25    c-4.7,4.7-4.7,12.3,0,17c2.3,2.3,5.4,3.5,8.5,3.5s6.1-1.2,8.5-3.5l25-25l25,25c2.3,2.3,5.4,3.5,8.5,3.5s6.1-1.2,8.5-3.5    c4.7-4.7,4.7-12.3,0-17l-25-25l25-25C278.688,389.2,278.688,381.6,274.088,376.9z"/><path d="M196.388,286.7c6.6,0,12-5.4,12-12c0-6.6-5.4-12-12-12s-12,5.4-12,12C184.388,281.3,189.688,286.7,196.388,286.7z"/><path d="M107.488,322.1c2,1.3,4.3,2,6.6,2c3.9,0,7.7-1.9,10-5.4c3.6-5.5,2.1-13-3.4-16.6c-5.5-3.6-13-2.1-16.6,3.4    C100.388,311,101.888,318.5,107.488,322.1z"/><path d="M144.988,270.8c-6.1,2.7-8.8,9.8-6.1,15.8c2,4.5,6.4,7.1,11,7.1c1.6,0,3.3-0.3,4.9-1c6.1-2.7,8.8-9.8,6.1-15.8    C158.087,270.8,150.988,268.1,144.988,270.8z"/><circle cx="243" cy="274" r="12"/><path d="M100.688,369c3.2,0,6.3-1.3,8.5-3.5s3.5-5.3,3.5-8.5s-1.3-6.3-3.5-8.5s-5.3-3.5-8.5-3.5s-6.3,1.3-8.5,3.5    s-3.5,5.3-3.5,8.5s1.3,6.3,3.5,8.5S97.488,369,100.688,369z"/><path d="M429.088,170.2l-46.4-46.4c-4.7-4.7-12.3-4.7-17,0l-46.4,46.4c-4.7,4.7-4.7,12.3,0,17s12.3,4.7,17,0l25.9-25.9v31    c0,38.8-31.8,70.3-70.9,70.3c-6.6,0-12,5.4-12,12c0,6.6,5.4,12,12,12c52.3,0,94.9-42.3,94.9-94.3v-31.1l25.9,25.9    c2.3,2.3,5.4,3.5,8.5,3.5s6.1-1.2,8.5-3.5C433.788,182.5,433.788,174.9,429.088,170.2z"/></g></defs><g fi:class="KUsePattern" opacity="0.1"><pattern id="pattern_L1_6" width="350" height="350" patternUnits="userSpaceOnUse"><use xlink:href="#L1_6" x="-350" y="-350"/><use xlink:href="#L1_6" x="0" y="-350"/><use xlink:href="#L1_6" x="350" y="-350"/><use xlink:href="#L1_6" x="-350" y="0"/><use xlink:href="#L1_6" x="0" y="0"/><use xlink:href="#L1_6" x="350" y="0"/><use xlink:href="#L1_6" x="-350" y="350"/><use xlink:href="#L1_6" x="0" y="350"/><use xlink:href="#L1_6" x="350" y="350"/></pattern><rect x="0" y="0" width="100%" height="100%" fill="url(#pattern_L1_6)"/></g><g fi:class="KUsePattern" opacity="0.05"><pattern id="pattern_L1_7" width="350" height="350" patternUnits="userSpaceOnUse"><use xlink:href="#L1_7" x="-350" y="-350"/><use xlink:href="#L1_7" x="0" y="-350"/><use xlink:href="#L1_7" x="350" y="-350"/><use xlink:href="#L1_7" x="-350" y="0"/><use xlink:href="#L1_7" x="0" y="0"/><use xlink:href="#L1_7" x="350" y="0"/><use xlink:href="#L1_7" x="-350" y="350"/><use xlink:href="#L1_7" x="0" y="350"/><use xlink:href="#L1_7" x="350" y="350"/></pattern><rect x="0" y="0" width="100%" height="100%" fill="url(#pattern_L1_7)"/></g><g fi:class="KUsePattern" opacity="0.1"><pattern id="pattern_L1_8" width="350" height="350" patternUnits="userSpaceOnUse"><use xlink:href="#L1_8" x="-350" y="-350"/><use xlink:href="#L1_8" x="0" y="-350"/><use xlink:href="#L1_8" x="350" y="-350"/><use xlink:href="#L1_8" x="-350" y="0"/><use xlink:href="#L1_8" x="0" y="0"/><use xlink:href="#L1_8" x="350" y="0"/><use xlink:href="#L1_8" x="-350" y="350"/><use xlink:href="#L1_8" x="0" y="350"/><use xlink:href="#L1_8" x="350" y="350"/></pattern><rect x="0" y="0" width="100%" height="100%" fill="url(#pattern_L1_8)"/></g><g fi:class="KUsePattern" opacity="0.03"><pattern id="pattern_L1_10" width="350" height="350" patternUnits="userSpaceOnUse"><use xlink:href="#L1_10" x="-350" y="-350"/><use xlink:href="#L1_10" x="0" y="-350"/><use xlink:href="#L1_10" x="350" y="-350"/><use xlink:href="#L1_10" x="-350" y="0"/><use xlink:href="#L1_10" x="0" y="0"/><use xlink:href="#L1_10" x="350" y="0"/><use xlink:href="#L1_10" x="-350" y="350"/><use xlink:href="#L1_10" x="0" y="350"/><use xlink:href="#L1_10" x="350" y="350"/></pattern><rect x="0" y="0" width="100%" height="100%" fill="url(#pattern_L1_10)"/></g><g fi:class="KUsePattern" opacity="0.07"><pattern id="pattern_L1_12" width="350" height="350" patternUnits="userSpaceOnUse"><use xlink:href="#L1_12" x="-350" y="-350"/><use xlink:href="#L1_12" x="0" y="-350"/><use xlink:href="#L1_12" x="350" y="-350"/><use xlink:href="#L1_12" x="-350" y="0"/><use xlink:href="#L1_12" x="0" y="0"/><use xlink:href="#L1_12" x="350" y="0"/><use xlink:href="#L1_12" x="-350" y="350"/><use xlink:href="#L1_12" x="0" y="350"/><use xlink:href="#L1_12" x="350" y="350"/></pattern><rect x="0" y="0" width="100%" height="100%" fill="url(#pattern_L1_12)"/></g><g fi:class="KUsePattern" opacity="0.05"><pattern id="pattern_L1_13" width="350" height="350" patternUnits="userSpaceOnUse"><use xlink:href="#L1_13" x="-350" y="-350"/><use xlink:href="#L1_13" x="0" y="-350"/><use xlink:href="#L1_13" x="350" y="-350"/><use xlink:href="#L1_13" x="-350" y="0"/><use xlink:href="#L1_13" x="0" y="0"/><use xlink:href="#L1_13" x="350" y="0"/><use xlink:href="#L1_13" x="-350" y="350"/><use xlink:href="#L1_13" x="0" y="350"/><use xlink:href="#L1_13" x="350" y="350"/></pattern><rect x="0" y="0" width="100%" height="100%" fill="url(#pattern_L1_13)"/></g></svg>